HIERARCHY
ROOT Hips
{
	OFFSET -3.958830 18.904000 13.208200
	CHANNELS 6 Xposition Yposition Zposition Zrotation Yrotation Xrotation 
	JOINT LHipJoint
	{
		OFFSET 0.000000 0.000000 0.000000
		CHANNELS 3 Zrotation Yrotation Xrotation
		JOINT LeftUpLeg
		{
			OFFSET 1.800000 -1.400000 0.085000
			CHANNELS 3 Zrotation Yrotation Xrotation
			JOINT LeftLeg
			{
				OFFSET 2.215000 -6.000000 0.000000
				CHANNELS 3 Zrotation Yrotation Xrotation
				JOINT LeftFoot
				{
					OFFSET 2.500000 -6.900000 0.000000
					CHANNELS 3 Zrotation Yrotation Xrotation
					JOINT LeftToeBase
					{
						OFFSET 0.200000 -0.500000 1.950000
						CHANNELS 3 Zrotation Yrotation Xrotation
						End Site
						{
							OFFSET 0.000000 0.000000 0.000000
						}
					}
				}
			}
		}
	}
	JOINT RHipJoint
	{
		OFFSET 0.000000 0.000000 0.000000
		CHANNELS 3 Zrotation Yrotation Xrotation
		JOINT RightUpLeg
		{
			OFFSET -1.800000 -1.400000 0.085000
			CHANNELS 3 Zrotation Yrotation Xrotation
			JOINT RightLeg
			{
				OFFSET -2.215000 -6.000000 0.000000
				CHANNELS 3 Zrotation Yrotation Xrotation
				JOINT RightFoot
				{
					OFFSET -2.500000 -6.900000 0.000000
					CHANNELS 3 Zrotation Yrotation Xrotation
					JOINT RightToeBase
					{
						OFFSET -0.200000 -0.500000 1.950000
						CHANNELS 3 Zrotation Yrotation Xrotation
						End Site
						{
							OFFSET 0.000000 0.000000 0.000000
						}
					}
				}
			}
		}
	}
	JOINT LowerBack
	{
		OFFSET 0.000000 0.000000 0.000000
		CHANNELS 3 Zrotation Yrotation Xrotation
		JOINT Spine
		{
			OFFSET -0.087000 1.940000 -0.288900
			CHANNELS 3 Zrotation Yrotation Xrotation
			JOINT Spine1
			{
				OFFSET 0.000000 1.950000 0.060000
				CHANNELS 3 Zrotation Yrotation Xrotation
				JOINT Neck
				{
					OFFSET 0.000000 0.000000 0.000000
					CHANNELS 3 Zrotation Yrotation Xrotation
					JOINT Neck1
					{
						OFFSET 0.000000 1.600000 0.340000
						CHANNELS 3 Zrotation Yrotation Xrotation
						JOINT Head
						{
							OFFSET 0.000000 1.667000 -0.240000
							CHANNELS 3 Zrotation Yrotation Xrotation
							End Site
							{
								OFFSET 0.000000 0.000000 0.000000
							}
						}
					}
				}
				JOINT LeftShoulder
				{
					OFFSET 0.000000 0.000000 0.000000
					CHANNELS 3 Zrotation Yrotation Xrotation
					JOINT LeftArm
					{
						OFFSET 2.700000 1.550000 -0.730000
						CHANNELS 3 Zrotation Yrotation Xrotation
						JOINT LeftForeArm
						{
							OFFSET 5.450000 0.000000 0.000000
							CHANNELS 3 Zrotation Yrotation Xrotation
							JOINT LeftHand
							{
								OFFSET 3.450000 0.000000 0.000000
								CHANNELS 3 Zrotation Yrotation Xrotation
								JOINT LeftHandIndex1
								{
									OFFSET 0.750000 0.000000 0.000000
									CHANNELS 3 Zrotation Yrotation Xrotation
									End Site
									{
										OFFSET 0.000000 0.000000 0.000000
									}
								}
							}
						}
					}
				}
				JOINT RightShoulder
				{
					OFFSET 0.000000 0.000000 0.000000
					CHANNELS 3 Zrotation Yrotation Xrotation
					JOINT RightArm
					{
						OFFSET -2.700000 1.550000 -0.730000
						CHANNELS 3 Zrotation Yrotation Xrotation
						JOINT RightForeArm
						{
							OFFSET -5.450000 0.000000 0.000000
							CHANNELS 3 Zrotation Yrotation Xrotation
							JOINT RightHand
							{
								OFFSET -3.450000 0.000000 0.000000
								CHANNELS 3 Zrotation Yrotation Xrotation
								JOINT RightHandIndex1
								{
									OFFSET -0.750000 0.000000 0.000000
									CHANNELS 3 Zrotation Yrotation Xrotation
									End Site
									{
										OFFSET 0.000000 0.000000 0.000000
									}
								}
							}
						}
					}
				}
			}
		}
	}
}
MOTION
Frames: 10
Frame Time: 0.016667
-0.746690 15.015300 -3.040840 -3.565876 10.751221 5.158201 -15.865512 7.103531 7.928041 49.306496 10.195177 -53.499032 -26.196397 25.292418 37.456238 1.023436 12.018142 0.120087 0.583830 0.594700 0.490930 18.870798 -6.136765 4.459772 -55.220700 3.671608 -25.301056 63.275129 -25.906249 20.382199 -1.947107 -9.406162 0.924836 0.292810 -0.347180 0.066050 -3.307062 -0.344750 -11.337952 4.792534 4.375672 38.527793 -9.089572 8.434724 2.166479 4.301626 1.247878 -8.765371 0.450755 -1.163322 47.897019 7.673380 -0.258020 -24.089740 -28.143029 -6.803530 2.055962 -38.508890 1.685667 -12.189145 -26.613576 -74.833171 15.040932 -3.114717 3.408100 0.574120 -0.364730 0.462150 0.030610 18.604685 11.247163 5.101431 32.639913 6.741524 -7.438690 89.768428 61.750274 46.618567 2.755507 -1.406907 0.058340 0.179990 -0.181740 -0.154200 
-0.721880 14.788510 -3.071650 -3.325138 11.591443 2.635476 -15.851824 6.832073 8.109919 50.924449 11.491226 -54.337442 -26.754449 28.037417 41.484920 1.174964 12.651904 -0.051334 0.605700 0.628810 0.517880 18.942910 -6.120065 4.363250 -59.014193 3.669489 -23.600832 67.318036 -28.347902 20.698207 -2.067865 -9.639937 0.861228 0.322780 -0.352250 0.082000 -3.399240 -0.036707 -11.373452 5.752005 4.429911 42.408687 -10.895630 9.140591 3.227401 5.246217 2.532852 -8.696387 3.235085 -2.652527 46.064970 6.910550 0.057810 -25.805210 -28.006311 -6.284690 2.319009 -33.966348 0.911604 -7.846683 -69.884016 -85.189739 55.054449 -3.458163 3.122690 0.581120 -0.352710 0.476200 0.023650 16.371367 10.117923 4.884806 26.219605 4.524988 -8.710764 115.092799 61.246524 69.225939 2.697924 -1.253570 0.055550 0.190310 -0.181580 -0.166190 
-0.700690 14.589350 -3.097970 -2.763373 12.762238 0.940701 -15.788254 6.613758 8.234527 51.371761 11.938480 -55.759890 -26.231208 29.817823 45.072448 1.271683 13.084582 -0.164537 0.605120 0.628330 0.518240 19.037240 -6.220575 4.269237 -62.102281 3.550549 -22.856843 69.682679 -31.194896 22.024619 -2.147938 -9.850891 0.807344 0.333060 -0.348750 0.087030 -3.595482 0.331810 -11.399203 7.224127 3.747390 45.603831 -13.103764 9.115033 3.557617 5.784728 2.745287 -8.541569 3.475292 -3.758694 44.538747 6.702840 -0.684840 -27.179050 -26.827823 -7.057776 1.250869 -30.334173 1.980998 -11.420581 -133.033005 -78.035569 116.985878 -3.188741 2.712452 0.588820 -0.349340 0.473430 0.015130 13.896356 9.957074 5.679705 21.414606 1.618355 -9.228487 133.852882 58.563559 89.282381 2.441221 -1.434509 0.045990 0.200680 -0.169280 -0.171000 
-0.686350 14.420410 -3.115990 -2.383142 13.868238 -0.307074 -15.729832 6.455782 8.321012 51.470410 11.986669 -57.162930 -25.265503 31.102289 48.199857 1.354333 13.435156 -0.241548 0.579160 0.594290 0.501960 19.114534 -6.347225 4.164383 -63.920213 3.049820 -23.467805 69.379101 -34.999811 25.377877 -2.202640 -10.135518 0.742702 0.324060 -0.322190 0.080820 -3.767125 0.637364 -11.414783 8.327075 2.591499 47.055109 -15.148038 8.465182 4.925440 6.344933 2.483845 -8.986852 2.916088 -3.815038 44.309585 6.181350 -1.151670 -26.706160 -24.984352 -6.949904 1.567695 -28.177079 1.717679 -10.230794 -157.484640 -74.194509 142.441507 -3.163927 3.219734 0.579390 -0.330370 0.446840 0.008320 10.948584 9.457661 6.109593 18.178162 0.040780 -8.852709 145.802574 55.977770 103.159492 2.300251 -1.582912 0.026860 0.216100 -0.148450 -0.171500 
-0.684800 14.296230 -3.132350 -1.929749 14.593738 -1.583941 -15.710157 6.390549 8.351248 51.402588 11.783972 -58.039496 -24.293265 31.900495 50.685856 1.402021 13.690747 -0.309290 0.575870 0.590780 0.504250 19.145425 -6.409537 4.093198 -64.779884 2.734323 -24.329588 67.236908 -38.389055 29.539800 -2.263033 -10.432552 0.663040 0.328970 -0.315300 0.087180 -3.821170 0.744633 -11.404738 8.417980 1.868269 48.761810 -16.204525 7.886677 5.931506 6.822085 2.575607 -9.130737 3.195035 -3.774167 43.640466 5.539330 -0.873470 -27.144240 -23.500582 -6.757601 1.666923 -26.557337 1.468897 -9.649878 -169.346826 -70.933527 155.866989 -3.184271 3.360784 0.580610 -0.318640 0.442180 0.001720 8.592111 8.854079 6.221491 15.861381 -0.566000 -8.571876 152.656939 54.306341 112.030397 2.220051 -1.669152 0.019080 0.220990 -0.138460 -0.177420 
-0.681830 14.206230 -3.142130 -1.729722 14.917008 -2.789088 -15.707905 6.376490 8.355691 51.413860 11.621824 -58.505079 -23.162632 32.398545 52.842541 1.448281 13.888188 -0.362131 0.579070 0.599410 0.504630 19.155958 -6.405280 4.067530 -65.175808 2.619881 -25.070644 64.854225 -40.866469 33.240486 -2.315844 -10.698091 0.592228 0.334190 -0.310590 0.096020 -3.829065 0.711456 -11.404604 8.342571 1.149834 50.250803 -16.699046 7.219393 6.691798 7.190635 2.365040 -9.085053 2.963363 -3.086363 43.379347 4.791890 -0.405640 -27.198440 -22.441211 -6.383594 1.781896 -25.717891 1.797347 -9.447865 -175.325445 -68.992896 163.221267 -3.203813 3.427370 0.570510 -0.307330 0.439140 0.000310 6.897815 8.345064 5.948721 13.318130 -0.382328 -8.364027 156.533727 53.224988 117.506102 2.173471 -1.732805 0.024310 0.217980 -0.134900 -0.174880 
-0.681650 14.119740 -3.145380 -1.586118 15.151541 -3.676413 -15.736084 6.382695 8.367821 51.453155 11.519532 -59.165087 -21.805934 32.824462 55.114931 1.491397 14.082842 -0.416179 0.599090 0.628240 0.516090 19.140235 -6.341522 4.054421 -65.424649 2.499802 -25.625004 62.733732 -42.929131 36.482611 -2.379070 -10.932500 0.531822 0.349760 -0.314480 0.106730 -3.749951 0.552890 -11.405500 7.870870 0.877911 51.303115 -16.436726 6.842046 7.257490 7.521527 2.479570 -8.994338 3.412158 -2.660052 42.603154 4.346520 0.175880 -27.958380 -21.328565 -5.759822 1.864931 -26.061775 1.963464 -9.233894 -179.111418 -67.441211 168.129266 -3.214798 3.465169 0.569560 -0.303760 0.448770 0.005680 5.229180 7.578763 5.603707 11.754002 0.055555 -8.200270 159.587163 52.301861 121.950922 2.133393 -1.785096 0.032910 0.217830 -0.141820 -0.174380 
-0.691550 14.064860 -3.139200 -1.577595 15.313359 -4.250356 -15.748631 6.374482 8.359322 51.421358 11.337051 -59.646879 -20.561073 32.888438 56.698265 1.499054 14.207184 -0.452755 0.587940 0.620890 0.511190 19.133887 -6.308801 4.065955 -65.408855 2.331339 -26.042302 61.350171 -44.313180 38.696721 -2.409957 -11.101434 0.491910 0.352510 -0.300110 0.102410 -3.710249 0.497680 -11.405670 7.505917 0.858900 51.950742 -16.319963 6.715747 7.538879 7.712800 2.925324 -8.958682 4.411469 -2.726018 42.288187 4.226510 0.617910 -27.846920 -20.598532 -5.532337 1.760108 -25.476183 1.704874 -9.027301 178.965380 -66.812157 170.986118 -3.238765 3.467921 0.567240 -0.288950 0.437120 -0.002310 4.197013 7.030875 5.597637 11.710930 0.331714 -7.896059 159.716406 51.677788 121.398165 2.125036 -1.801408 0.019540 0.227350 -0.129820 -0.179210 
-0.699840 14.014860 -3.120500 -1.832795 15.320433 -4.714422 -15.764619 6.348714 8.380124 51.584933 11.421430 -60.200337 -19.253231 32.973176 58.318867 1.535659 14.307863 -0.484693 0.593640 0.634300 0.513750 19.125285 -6.280751 4.064145 -65.228166 2.271552 -26.216099 60.466810 -45.411074 40.323166 -2.448430 -11.220160 0.463355 0.353460 -0.310180 0.104720 -3.667992 0.469571 -11.422094 7.326225 1.144066 52.022808 -15.840601 6.984272 7.764911 7.677285 3.742583 -9.216624 6.072220 -3.068905 42.901535 4.709880 1.258290 -27.422890 -20.066702 -5.703816 1.928170 -25.583909 1.850975 -9.037523 178.343700 -66.648075 171.952565 -3.232612 3.481628 0.566920 -0.290330 0.446470 -0.001590 3.784391 6.782067 5.834075 12.935844 0.062273 -7.763571 157.677196 51.759437 117.549162 2.146834 -1.802535 0.028390 0.212250 -0.138420 -0.180210 
-0.709960 13.999910 -3.106970 -2.044021 15.321961 -5.063653 -15.784273 6.379927 8.365186 51.526466 11.205656 -60.484976 -18.252204 32.689361 59.147335 1.534213 14.320765 -0.497642 0.592040 0.631870 0.526770 19.103238 -6.251643 4.075917 -64.564037 2.258740 -26.408199 59.195878 -45.892544 41.794561 -2.480274 -11.335394 0.430011 0.346850 -0.325490 0.105670 -3.603791 0.370199 -11.424482 6.915544 1.673517 52.301688 -15.028106 7.406583 7.635130 7.367418 4.728782 -9.520961 7.934440 -3.684200 43.847122 4.925920 1.894770 -27.059030 -20.502603 -6.894696 2.017911 -24.780849 1.570280 -9.344904 179.896552 -68.237875 170.186088 -3.224169 3.452027 0.578660 -0.294680 0.459680 -0.009820 4.825807 7.442807 6.297033 15.282875 -0.337399 -8.036781 156.101202 52.025046 114.559690 2.178359 -1.765576 0.029080 0.201660 -0.142200 -0.191500 
